<svg width="268" height="53" viewBox="0 0 268 53" fill="none" xmlns="http://www.w3.org/2000/svg">
<path d="M0 4C0 1.79086 1.79086 0 4 0H197.436C198.315 0 199.169 0.289681 199.868 0.824244L258.63 45.8242C261.666 48.1491 260.021 53 256.198 53H4C1.79086 53 0 51.2091 0 49V4Z" fill="#3F444A"/>
<path d="M56.8462 20.5403H52.1238C52.1763 20.4959 52.2302 20.4528 52.2813 20.4057C52.6902 20.0425 53.0197 19.5988 53.2492 19.1024C53.4788 18.6061 53.6034 18.0677 53.6154 17.5209C53.6331 16.9228 53.5283 16.3274 53.3076 15.7712C53.0868 15.215 52.7547 14.7098 52.3316 14.2866C51.9086 13.8634 51.4035 13.5312 50.8473 13.3102C50.2912 13.0893 49.6958 12.9844 49.0977 13.0019C48.5507 13.0137 48.0121 13.1382 47.5154 13.3678C47.0188 13.5973 46.5749 13.9269 46.2115 14.3359C45.7088 14.9187 45.3001 15.5764 45 16.2851C44.6999 15.5764 44.2912 14.9187 43.7885 14.3359C43.4251 13.9269 42.9812 13.5973 42.4846 13.3678C41.9879 13.1382 41.4493 13.0137 40.9023 13.0019C40.3042 12.9844 39.7088 13.0893 39.1527 13.3102C38.5965 13.5312 38.0914 13.8634 37.6684 14.2866C37.2453 14.7098 36.9132 15.215 36.6924 15.7712C36.4717 16.3274 36.3669 16.9228 36.3846 17.5209C36.3966 18.0677 36.5212 18.6061 36.7508 19.1024C36.9803 19.5988 37.3098 20.0425 37.7187 20.4057C37.7698 20.4501 37.8237 20.4932 37.8762 20.5403H33.1538C32.5826 20.5403 32.0348 20.7673 31.6308 21.1712C31.2269 21.5751 31 22.123 31 22.6942V27.0019C31 27.5731 31.2269 28.121 31.6308 28.5249C32.0348 28.9288 32.5826 29.1557 33.1538 29.1557V37.7711C33.1538 38.3423 33.3808 38.8902 33.7847 39.2941C34.1886 39.698 34.7365 39.925 35.3077 39.925H43.3846C43.5274 39.925 43.6644 39.8682 43.7654 39.7672C43.8663 39.6663 43.9231 39.5293 43.9231 39.3865V27.0019H33.1538V22.6942H43.9231V27.0019H46.0769V22.6942H56.8462V27.0019H46.0769V39.3865C46.0769 39.5293 46.1337 39.6663 46.2346 39.7672C46.3356 39.8682 46.4726 39.925 46.6154 39.925H54.6923C55.2635 39.925 55.8114 39.698 56.2153 39.2941C56.6192 38.8902 56.8462 38.3423 56.8462 37.7711V29.1557C57.4174 29.1557 57.9652 28.9288 58.3692 28.5249C58.7731 28.121 59 27.5731 59 27.0019V22.6942C59 22.123 58.7731 21.5751 58.3692 21.1712C57.9652 20.7673 57.4174 20.5403 56.8462 20.5403ZM39.1456 18.7903C38.9573 18.6198 38.8064 18.4122 38.7021 18.1805C38.5979 17.9489 38.5426 17.6982 38.5398 17.4442C38.533 17.1466 38.5857 16.8506 38.6947 16.5735C38.8038 16.2965 38.967 16.0441 39.1749 15.8309C39.3827 15.6178 39.631 15.4483 39.9052 15.3324C40.1794 15.2164 40.474 15.1564 40.7717 15.1557H40.8377C41.0917 15.1585 41.3424 15.2138 41.574 15.318C41.8057 15.4223 42.0133 15.5733 42.1838 15.7615C43.3133 17.0376 43.7117 19.1538 43.8517 20.4623C42.5379 20.3236 40.4231 19.9251 39.1456 18.7903ZM50.8571 18.7903C49.5796 19.9211 47.4594 20.3196 46.1456 20.4596C46.3058 19.0448 46.75 16.973 47.8269 15.7628C47.9975 15.5746 48.2051 15.4236 48.4367 15.3194C48.6684 15.2152 48.9191 15.1599 49.1731 15.1571H49.239C49.5368 15.1589 49.8311 15.2202 50.1049 15.3373C50.3786 15.4544 50.6262 15.6249 50.8332 15.8389C51.0402 16.0529 51.2024 16.3061 51.3103 16.5836C51.4182 16.8611 51.4696 17.1573 51.4615 17.455C51.4571 17.7072 51.4009 17.9559 51.2965 18.1856C51.192 18.4153 51.0416 18.6211 50.8544 18.7903H50.8571Z" fill="white"/>
<path d="M71.218 32V22.2H79.128V24.006H73.472V26.022H76.188C77.3733 26.022 78.274 26.2693 78.89 26.764C79.5153 27.2587 79.828 27.9773 79.828 28.92C79.828 29.8907 79.4827 30.6467 78.792 31.188C78.1013 31.7293 77.126 32 75.866 32H71.218ZM73.472 30.32H75.74C76.3187 30.32 76.762 30.208 77.07 29.984C77.378 29.7507 77.532 29.4147 77.532 28.976C77.532 28.1173 76.9347 27.688 75.74 27.688H73.472V30.32ZM85.0679 32.112C84.2093 32.112 83.4533 31.944 82.7999 31.608C82.1559 31.272 81.6566 30.8147 81.3019 30.236C80.9473 29.648 80.7699 28.9807 80.7699 28.234C80.7699 27.478 80.9426 26.8107 81.2879 26.232C81.6426 25.644 82.1233 25.1867 82.7299 24.86C83.3366 24.524 84.0226 24.356 84.7879 24.356C85.5253 24.356 86.1879 24.5147 86.7759 24.832C87.3733 25.14 87.8446 25.588 88.1899 26.176C88.5353 26.7547 88.7079 27.45 88.7079 28.262C88.7079 28.346 88.7033 28.444 88.6939 28.556C88.6846 28.6587 88.6753 28.7567 88.6659 28.85H82.5479V27.576H87.5179L86.6779 27.954C86.6779 27.562 86.5986 27.2213 86.4399 26.932C86.2813 26.6427 86.0619 26.4187 85.7819 26.26C85.5019 26.092 85.1753 26.008 84.8019 26.008C84.4286 26.008 84.0973 26.092 83.8079 26.26C83.5279 26.4187 83.3086 26.6473 83.1499 26.946C82.9913 27.2353 82.9119 27.5807 82.9119 27.982V28.318C82.9119 28.7287 83.0006 29.0927 83.1779 29.41C83.3646 29.718 83.6213 29.956 83.9479 30.124C84.2839 30.2827 84.6759 30.362 85.1239 30.362C85.5253 30.362 85.8753 30.3013 86.1739 30.18C86.4819 30.0587 86.7619 29.8767 87.0139 29.634L88.1759 30.894C87.8306 31.286 87.3966 31.5893 86.8739 31.804C86.3513 32.0093 85.7493 32.112 85.0679 32.112ZM89.3617 31.986L89.4737 30.194C89.5297 30.2033 89.5857 30.2127 89.6417 30.222C89.6977 30.222 89.749 30.222 89.7957 30.222C90.057 30.222 90.2623 30.1473 90.4117 29.998C90.561 29.8487 90.673 29.648 90.7477 29.396C90.8223 29.1347 90.8737 28.8407 90.9017 28.514C90.939 28.1873 90.967 27.8467 90.9857 27.492L91.0977 24.468H97.5377V32H95.3537V25.728L95.8437 26.26H92.5397L93.0017 25.7L92.9037 27.59C92.8757 28.262 92.8197 28.878 92.7357 29.438C92.661 29.998 92.535 30.4833 92.3577 30.894C92.1803 31.2953 91.9423 31.608 91.6437 31.832C91.345 32.0467 90.9623 32.154 90.4957 32.154C90.3277 32.154 90.1503 32.14 89.9637 32.112C89.777 32.084 89.5763 32.042 89.3617 31.986ZM103.32 32.112C102.461 32.112 101.705 31.944 101.052 31.608C100.408 31.272 99.9086 30.8147 99.5539 30.236C99.1992 29.648 99.0219 28.9807 99.0219 28.234C99.0219 27.478 99.1946 26.8107 99.5399 26.232C99.8946 25.644 100.375 25.1867 100.982 24.86C101.589 24.524 102.275 24.356 103.04 24.356C103.777 24.356 104.44 24.5147 105.028 24.832C105.625 25.14 106.097 25.588 106.442 26.176C106.787 26.7547 106.96 27.45 106.96 28.262C106.96 28.346 106.955 28.444 106.946 28.556C106.937 28.6587 106.927 28.7567 106.918 28.85H100.8V27.576H105.77L104.93 27.954C104.93 27.562 104.851 27.2213 104.692 26.932C104.533 26.6427 104.314 26.4187 104.034 26.26C103.754 26.092 103.427 26.008 103.054 26.008C102.681 26.008 102.349 26.092 102.06 26.26C101.78 26.4187 101.561 26.6473 101.402 26.946C101.243 27.2353 101.164 27.5807 101.164 27.982V28.318C101.164 28.7287 101.253 29.0927 101.43 29.41C101.617 29.718 101.873 29.956 102.2 30.124C102.536 30.2827 102.928 30.362 103.376 30.362C103.777 30.362 104.127 30.3013 104.426 30.18C104.734 30.0587 105.014 29.8767 105.266 29.634L106.428 30.894C106.083 31.286 105.649 31.5893 105.126 31.804C104.603 32.0093 104.001 32.112 103.32 32.112ZM113.968 32L111.448 28.43L113.226 27.38L116.544 32H113.968ZM108.634 32V24.468H110.818V32H108.634ZM110.174 29.144V27.394H112.806V29.144H110.174ZM113.436 28.486L111.392 28.262L114.038 24.468H116.362L113.436 28.486ZM119.158 32V25.756L119.648 26.26H116.61V24.468H123.876V26.26H120.838L121.328 25.756V32H119.158ZM128.408 32.112C127.549 32.112 126.793 31.944 126.14 31.608C125.496 31.272 124.996 30.8147 124.642 30.236C124.287 29.648 124.11 28.9807 124.11 28.234C124.11 27.478 124.282 26.8107 124.628 26.232C124.982 25.644 125.463 25.1867 126.07 24.86C126.676 24.524 127.362 24.356 128.128 24.356C128.865 24.356 129.528 24.5147 130.116 24.832C130.713 25.14 131.184 25.588 131.53 26.176C131.875 26.7547 132.048 27.45 132.048 28.262C132.048 28.346 132.043 28.444 132.034 28.556C132.024 28.6587 132.015 28.7567 132.006 28.85H125.888V27.576H130.858L130.018 27.954C130.018 27.562 129.938 27.2213 129.78 26.932C129.621 26.6427 129.402 26.4187 129.122 26.26C128.842 26.092 128.515 26.008 128.142 26.008C127.768 26.008 127.437 26.092 127.148 26.26C126.868 26.4187 126.648 26.6473 126.49 26.946C126.331 27.2353 126.252 27.5807 126.252 27.982V28.318C126.252 28.7287 126.34 29.0927 126.518 29.41C126.704 29.718 126.961 29.956 127.288 30.124C127.624 30.2827 128.016 30.362 128.464 30.362C128.865 30.362 129.215 30.3013 129.514 30.18C129.822 30.0587 130.102 29.8767 130.354 29.634L131.516 30.894C131.17 31.286 130.736 31.5893 130.214 31.804C129.691 32.0093 129.089 32.112 128.408 32.112ZM138.16 32.112C137.525 32.112 136.97 31.972 136.494 31.692C136.018 31.412 135.645 30.9873 135.374 30.418C135.113 29.8393 134.982 29.1113 134.982 28.234C134.982 27.3473 135.108 26.6193 135.36 26.05C135.612 25.4807 135.976 25.056 136.452 24.776C136.928 24.496 137.497 24.356 138.16 24.356C138.869 24.356 139.504 24.5193 140.064 24.846C140.633 25.1633 141.081 25.6113 141.408 26.19C141.744 26.7687 141.912 27.45 141.912 28.234C141.912 29.0273 141.744 29.7133 141.408 30.292C141.081 30.8707 140.633 31.3187 140.064 31.636C139.504 31.9533 138.869 32.112 138.16 32.112ZM133.708 34.716V24.468H135.794V26.008L135.752 28.248L135.892 30.474V34.716H133.708ZM137.782 30.32C138.146 30.32 138.468 30.236 138.748 30.068C139.037 29.9 139.266 29.662 139.434 29.354C139.611 29.0367 139.7 28.6633 139.7 28.234C139.7 27.7953 139.611 27.422 139.434 27.114C139.266 26.806 139.037 26.568 138.748 26.4C138.468 26.232 138.146 26.148 137.782 26.148C137.418 26.148 137.091 26.232 136.802 26.4C136.513 26.568 136.284 26.806 136.116 27.114C135.948 27.422 135.864 27.7953 135.864 28.234C135.864 28.6633 135.948 29.0367 136.116 29.354C136.284 29.662 136.513 29.9 136.802 30.068C137.091 30.236 137.418 30.32 137.782 30.32Z" fill="white"/>
</svg>
