<svg width="6" height="9" viewBox="0 0 6 9" fill="none" xmlns="http://www.w3.org/2000/svg">
<path fill-rule="evenodd" clip-rule="evenodd" d="M5.36861 3.94535C5.48568 4.06245 5.55145 4.22126 5.55145 4.38684C5.55145 4.55242 5.48568 4.71123 5.36861 4.82833L1.83607 8.36087C1.77847 8.42052 1.70956 8.46809 1.63337 8.50082C1.55719 8.53354 1.47525 8.55077 1.39233 8.55149C1.30942 8.55221 1.22719 8.53641 1.15045 8.50501C1.0737 8.47361 1.00398 8.42725 0.94535 8.36861C0.886718 8.30998 0.84035 8.24026 0.808952 8.16352C0.777554 8.08677 0.761754 8.00455 0.762475 7.92163C0.763195 7.83872 0.780422 7.75678 0.813149 7.68059C0.845876 7.6044 0.893448 7.5355 0.95309 7.47789L4.04414 4.38684L0.95309 1.29578C0.83934 1.17801 0.776399 1.02027 0.777821 0.856544C0.779244 0.692813 0.844917 0.536192 0.960697 0.420413C1.07648 0.304633 1.2331 0.238959 1.39683 0.237537C1.56056 0.236115 1.7183 0.299056 1.83607 0.412806L5.36861 3.94535Z" fill="#4B4B4B"/>
</svg>
