<svg width="14" height="15" viewBox="0 0 14 15" fill="none" xmlns="http://www.w3.org/2000/svg">
<path d="M11.6444 5.82222H12.3722C12.5652 5.82222 12.7504 5.8989 12.8868 6.03538C13.0233 6.17187 13.1 6.35698 13.1 6.55V13.8278C13.1 14.0208 13.0233 14.2059 12.8868 14.3424C12.7504 14.4789 12.5652 14.5556 12.3722 14.5556H0.727778C0.534759 14.5556 0.349646 14.4789 0.213161 14.3424C0.0766763 14.2059 0 14.0208 0 13.8278V6.55C0 6.35698 0.0766763 6.17187 0.213161 6.03538C0.349646 5.8989 0.534759 5.82222 0.727778 5.82222H1.45556V5.09444C1.45556 3.74331 1.99229 2.44752 2.94768 1.49213C3.90308 0.536734 5.19887 0 6.55 0C7.90113 0 9.19692 0.536734 10.1523 1.49213C11.1077 2.44752 11.6444 3.74331 11.6444 5.09444V5.82222ZM10.1889 5.82222V5.09444C10.1889 4.12935 9.80551 3.20379 9.12308 2.52136C8.44066 1.83894 7.51509 1.45556 6.55 1.45556C5.58491 1.45556 4.65934 1.83894 3.97692 2.52136C3.29449 3.20379 2.91111 4.12935 2.91111 5.09444V5.82222H10.1889ZM5.82222 8.73333V11.6444H7.27778V8.73333H5.82222Z" fill="#3F444A"/>
</svg>
