<svg width="25" height="27" viewBox="0 0 25 27" fill="none" xmlns="http://www.w3.org/2000/svg">
<path d="M24.4381 8.2808C24.2598 8.10077 24.0478 7.958 23.8141 7.86076C23.5805 7.76351 23.3299 7.71373 23.0769 7.71429H19.2308V6.75C19.2308 4.95979 18.5216 3.2429 17.2594 1.97703C15.9971 0.711159 14.2851 0 12.5 0C10.7149 0 9.00289 0.711159 7.74062 1.97703C6.47836 3.2429 5.76923 4.95979 5.76923 6.75V7.71429H1.92308C1.41304 7.71429 0.923903 7.91747 0.563256 8.27915C0.202609 8.64083 0 9.13137 0 9.64286V22.6607C0 25.0112 1.98317 27 4.32692 27H20.6731C21.8068 27.0004 22.8956 26.5558 23.7067 25.7615C24.1149 25.371 24.4399 24.9015 24.6622 24.3816C24.8845 23.8616 24.9994 23.3018 25 22.736V9.64286C25.0008 9.38984 24.9515 9.13919 24.8551 8.90539C24.7586 8.6716 24.6169 8.45931 24.4381 8.2808ZM7.6923 6.75C7.6923 5.47128 8.19883 4.24493 9.10044 3.34073C10.0021 2.43654 11.2249 1.92857 12.5 1.92857C13.7751 1.92857 14.9979 2.43654 15.8995 3.34073C16.8012 4.24493 17.3077 5.47128 17.3077 6.75V7.71429H7.6923V6.75ZM19.2308 12.5357C19.2308 14.3259 18.5216 16.0428 17.2594 17.3087C15.9971 18.5746 14.2851 19.2857 12.5 19.2857C10.7149 19.2857 9.00289 18.5746 7.74062 17.3087C6.47836 16.0428 5.76923 14.3259 5.76923 12.5357V11.5714C5.76923 11.3157 5.87053 11.0704 6.05086 10.8896C6.23118 10.7087 6.47575 10.6071 6.73077 10.6071C6.98578 10.6071 7.23035 10.7087 7.41068 10.8896C7.591 11.0704 7.6923 11.3157 7.6923 11.5714V12.5357C7.6923 13.8144 8.19883 15.0408 9.10044 15.945C10.0021 16.8492 11.2249 17.3571 12.5 17.3571C13.7751 17.3571 14.9979 16.8492 15.8995 15.945C16.8012 15.0408 17.3077 13.8144 17.3077 12.5357V11.5714C17.3077 11.3157 17.409 11.0704 17.5893 10.8896C17.7696 10.7087 18.0142 10.6071 18.2692 10.6071C18.5242 10.6071 18.7688 10.7087 18.9491 10.8896C19.1295 11.0704 19.2308 11.3157 19.2308 11.5714V12.5357Z" fill="white"/>
</svg>
