<svg width="13" height="10" viewBox="0 0 13 10" fill="none" xmlns="http://www.w3.org/2000/svg">
<path d="M12.5 0H12C12 0 11.5 0.007 11.5 0.5H1.5C1.5 0.00549999 1 0 1 0H0.5C0.2245 0 0 0.2245 0 0.5V9.5C0 9.7755 0.2245 10 0.5 10H1C1 10 1.5 9.993 1.5 9.5V9C1.5 8.7245 1.7245 8.5 2 8.5H11C11.2755 8.5 11.5 8.7245 11.5 9V9.5C11.5 9.9945 12 10 12 10H12.5C12.7755 10 13 9.7755 13 9.5V0.5C13 0.2245 12.7755 0 12.5 0ZM1.5 3C1.5 2.172 1.672 1.5 2.5 1.5H5C5.828 1.5 6 2.172 6 3H1.5ZM7 3C7 2.172 7.172 1.5 8 1.5H10.5C11.328 1.5 11.5 2.172 11.5 3H7Z" fill="#4B4B4B"/>
</svg>
