<svg width="27" height="25" viewBox="0 0 27 25" fill="none" xmlns="http://www.w3.org/2000/svg">
<path d="M19.4756 0C16.9032 0 14.7052 1.90776 13.4975 3.22301C12.2899 1.90776 10.0968 0 7.52564 0C3.09395 0 0 3.21407 0 7.81491C0 12.8844 3.84259 16.161 7.56 19.3304C9.315 20.8283 11.1314 22.3759 12.5243 24.0921C12.7587 24.3795 13.1024 24.5455 13.4632 24.5455H13.5344C13.8964 24.5455 14.2388 24.3782 14.472 24.0921C15.8674 22.3759 17.6825 20.827 19.4388 19.3304C23.155 16.1623 27 12.8857 27 7.81491C27 3.21407 23.906 0 19.4756 0Z" fill="white"/>
</svg>
