<svg width="142" height="47" viewBox="0 0 142 47" fill="none" xmlns="http://www.w3.org/2000/svg">
<path d="M11.94 7.64C13.88 7.64 15.57 8.02 17.01 8.78C18.45 9.54 19.57 10.66 20.37 12.14C21.17 13.62 21.57 15.41 21.57 17.51V29H16.71V23.96H7.11V29H2.31V17.51C2.31 15.41 2.71 13.62 3.51 12.14C4.31 10.66 5.43 9.54 6.87 8.78C8.31 8.02 10 7.64 11.94 7.64ZM16.71 20.06V17.06C16.71 15.32 16.28 14.01 15.42 13.13C14.56 12.23 13.39 11.78 11.91 11.78C10.41 11.78 9.23 12.23 8.37 13.13C7.53 14.01 7.11 15.32 7.11 17.06V20.06H16.71ZM44.5603 8V22.43C44.5603 25.59 43.6803 28.01 41.9203 29.69C40.1603 31.39 37.7303 32.24 34.6303 32.24C32.8503 32.24 31.2203 31.99 29.7403 31.49C28.2603 31.01 27.0003 30.32 25.9603 29.42L27.8503 25.82C29.7503 27.36 31.9703 28.13 34.5103 28.13C36.2703 28.13 37.5703 27.69 38.4103 26.81C39.2703 25.91 39.7003 24.53 39.7003 22.67V21.38C38.3003 23.1 36.3203 23.96 33.7603 23.96C31.1003 23.96 29.0503 23.21 27.6103 21.71C26.1903 20.19 25.4803 18.01 25.4803 15.17V8H30.3403V14.87C30.3403 16.51 30.7303 17.75 31.5103 18.59C32.2903 19.43 33.3903 19.85 34.8103 19.85C36.3103 19.85 37.5003 19.41 38.3803 18.53C39.2603 17.65 39.7003 16.32 39.7003 14.54V8H44.5603ZM49.365 8H54.225V25.04H64.755V29H49.365V8ZM76.9205 7.64C78.8605 7.64 80.5505 8.02 81.9905 8.78C83.4305 9.54 84.5505 10.66 85.3505 12.14C86.1505 13.62 86.5505 15.41 86.5505 17.51V29H81.6905V23.96H72.0905V29H67.2905V17.51C67.2905 15.41 67.6905 13.62 68.4905 12.14C69.2905 10.66 70.4105 9.54 71.8505 8.78C73.2905 8.02 74.9805 7.64 76.9205 7.64ZM81.6905 20.06V17.06C81.6905 15.32 81.2605 14.01 80.4005 13.13C79.5405 12.23 78.3705 11.78 76.8905 11.78C75.3905 11.78 74.2105 12.23 73.3505 13.13C72.5105 14.01 72.0905 15.32 72.0905 17.06V20.06H81.6905ZM102.477 7.64C104.977 7.64 106.927 8.43 108.327 10.01C109.727 11.57 110.427 13.8 110.427 16.7V29H105.567V16.85C105.567 15.17 105.167 13.91 104.367 13.07C103.587 12.21 102.497 11.78 101.097 11.78C99.6174 11.78 98.4274 12.24 97.5274 13.16C96.6474 14.06 96.2074 15.4 96.2074 17.18V29H91.3474V8H96.0574V10.55C96.7774 9.59 97.6774 8.87 98.7574 8.39C99.8374 7.89 101.077 7.64 102.477 7.64ZM116.664 29.24C115.844 29.24 115.154 28.96 114.594 28.4C114.034 27.84 113.754 27.14 113.754 26.3C113.754 25.44 114.034 24.75 114.594 24.23C115.154 23.69 115.844 23.42 116.664 23.42C117.484 23.42 118.174 23.69 118.734 24.23C119.294 24.75 119.574 25.44 119.574 26.3C119.574 27.14 119.294 27.84 118.734 28.4C118.174 28.96 117.484 29.24 116.664 29.24ZM132.556 12.62C134.556 12.62 136.166 13.22 137.386 14.42C138.626 15.62 139.246 17.4 139.246 19.76V29H134.566V20.48C134.566 19.2 134.286 18.25 133.726 17.63C133.166 16.99 132.356 16.67 131.296 16.67C130.116 16.67 129.176 17.04 128.476 17.78C127.776 18.5 127.426 19.58 127.426 21.02V29H122.746V6.74H127.426V14.54C128.046 13.92 128.796 13.45 129.676 13.13C130.556 12.79 131.516 12.62 132.556 12.62Z" fill="#3F444A"/>
<path d="M95.855 34.78C96.725 34.78 97.5 34.96 98.18 35.32C98.87 35.67 99.41 36.165 99.8 36.805C100.19 37.445 100.385 38.165 100.385 38.965C100.385 39.765 100.19 40.485 99.8 41.125C99.41 41.765 98.87 42.265 98.18 42.625C97.5 42.975 96.725 43.15 95.855 43.15C95.085 43.15 94.385 43.025 93.755 42.775C93.135 42.515 92.62 42.145 92.21 41.665L93.545 40.405C94.155 41.035 94.895 41.35 95.765 41.35C96.345 41.35 96.845 41.205 97.265 40.915C97.685 40.625 97.97 40.23 98.12 39.73H94.73V38.125H98.09C97.93 37.645 97.645 37.265 97.235 36.985C96.825 36.705 96.335 36.565 95.765 36.565C94.905 36.565 94.165 36.885 93.545 37.525L92.21 36.28C92.62 35.79 93.135 35.42 93.755 35.17C94.385 34.91 95.085 34.78 95.855 34.78ZM109.595 34.93V43H107.255V36.85H104.705L104.63 38.275C104.59 39.335 104.49 40.215 104.33 40.915C104.17 41.615 103.91 42.165 103.55 42.565C103.19 42.965 102.69 43.165 102.05 43.165C101.71 43.165 101.305 43.105 100.835 42.985L100.955 41.065C101.115 41.085 101.23 41.095 101.3 41.095C101.65 41.095 101.91 40.97 102.08 40.72C102.26 40.46 102.38 40.135 102.44 39.745C102.5 39.345 102.545 38.82 102.575 38.17L102.695 34.93H109.595ZM120.081 34.93V41.65C120.081 43.13 119.696 44.23 118.926 44.95C118.156 45.67 117.031 46.03 115.551 46.03C114.771 46.03 114.031 45.935 113.331 45.745C112.631 45.555 112.051 45.28 111.591 44.92L112.521 43.24C112.861 43.52 113.291 43.74 113.811 43.9C114.331 44.07 114.851 44.155 115.371 44.155C116.181 44.155 116.776 43.97 117.156 43.6C117.546 43.24 117.741 42.69 117.741 41.95V41.605C117.131 42.275 116.281 42.61 115.191 42.61C114.451 42.61 113.771 42.45 113.151 42.13C112.541 41.8 112.056 41.34 111.696 40.75C111.336 40.16 111.156 39.48 111.156 38.71C111.156 37.94 111.336 37.26 111.696 36.67C112.056 36.08 112.541 35.625 113.151 35.305C113.771 34.975 114.451 34.81 115.191 34.81C116.361 34.81 117.251 35.195 117.861 35.965V34.93H120.081ZM115.656 40.69C116.276 40.69 116.781 40.51 117.171 40.15C117.571 39.78 117.771 39.3 117.771 38.71C117.771 38.12 117.571 37.645 117.171 37.285C116.781 36.915 116.276 36.73 115.656 36.73C115.036 36.73 114.526 36.915 114.126 37.285C113.726 37.645 113.526 38.12 113.526 38.71C113.526 39.3 113.726 39.78 114.126 40.15C114.526 40.51 115.036 40.69 115.656 40.69ZM130.299 34.93V43H128.064V42.055C127.764 42.405 127.394 42.67 126.954 42.85C126.524 43.03 126.064 43.12 125.574 43.12C124.514 43.12 123.669 42.815 123.039 42.205C122.419 41.595 122.109 40.69 122.109 39.49V34.93H124.449V39.145C124.449 40.445 124.994 41.095 126.084 41.095C126.654 41.095 127.109 40.915 127.449 40.555C127.789 40.185 127.959 39.64 127.959 38.92V34.93H130.299ZM136.084 39.94H134.869V43H132.529V34.93H134.869V38.065H136.129L138.319 34.93H140.809L137.989 38.8L141.004 43H138.244L136.084 39.94Z" fill="#3F444A"/>
</svg>
