<svg width="33" height="29" viewBox="0 0 33 29" fill="none" xmlns="http://www.w3.org/2000/svg">
<path fill-rule="evenodd" clip-rule="evenodd" d="M27.9896 27.0987V27.0954L28.0195 27.0238L33.0084 1.87173V1.79189C33.0084 1.16475 32.7755 0.617457 32.2731 0.289748C31.8323 0.00196235 31.3249 -0.0179995 30.9689 0.00861648C30.6376 0.0388466 30.3107 0.105797 29.9941 0.208236C29.859 0.251338 29.7258 0.300178 29.5949 0.354624L29.5732 0.362941L1.75956 11.2738L1.75124 11.2772C1.66603 11.3043 1.58314 11.3382 1.50338 11.3786C1.30568 11.4677 1.11591 11.5735 0.936124 11.6947C0.578472 11.9409 -0.101899 12.5198 0.0128826 13.438C0.107702 14.1999 0.631704 14.6823 0.986029 14.9335C1.1947 15.0808 1.41965 15.2036 1.65642 15.2995L1.70965 15.3228L1.72629 15.3278L1.73793 15.3328L6.60533 16.9713C6.58758 17.2774 6.61919 17.5851 6.70015 17.8946L9.13717 27.1419C9.27031 27.646 9.55799 28.0957 9.95981 28.4279C10.3616 28.7601 10.8574 28.9581 11.3775 28.9941C11.8976 29.03 12.416 28.9022 12.8597 28.6285C13.3034 28.3548 13.6503 27.9489 13.8515 27.468L17.6576 23.3991L24.1935 28.4095L24.2866 28.4494C24.8805 28.709 25.4345 28.7905 25.9418 28.7223C26.4492 28.6524 26.8518 28.4395 27.1545 28.1983C27.5048 27.9144 27.7839 27.5527 27.9696 27.1419L27.9829 27.1137L27.9879 27.1037L27.9896 27.0987ZM9.11222 17.2591C9.08523 17.1565 9.09165 17.0479 9.13053 16.9492C9.16942 16.8505 9.23876 16.7668 9.32847 16.7101L25.832 6.2301C25.832 6.2301 26.8035 5.63956 26.7686 6.2301C26.7686 6.2301 26.9416 6.33324 26.4209 6.81732C25.9285 7.2781 14.6583 18.159 13.5172 19.2603C13.4552 19.3231 13.411 19.4011 13.3891 19.4865L11.5492 26.5065L9.11222 17.2591Z" fill="#3F444A"/>
</svg>
