<svg width="14" height="14" viewBox="0 0 14 14" fill="none" xmlns="http://www.w3.org/2000/svg">
<path d="M2 0C0.896875 0 0 0.896875 0 2V12C0 13.1031 0.896875 14 2 14H12C13.1031 14 14 13.1031 14 12V2C14 0.896875 13.1031 0 12 0H2ZM4.83437 3.02187C5.1375 2.94062 5.45625 3.09375 5.575 3.38438L6.2 4.88438C6.30625 5.14062 6.23125 5.43437 6.01875 5.60938L5.25 6.24062C5.76875 7.34062 6.65938 8.23125 7.75938 8.75L8.39062 7.97812C8.56563 7.76562 8.85938 7.69063 9.11563 7.79688L10.6156 8.42188C10.9062 8.54375 11.0594 8.85938 10.9781 9.1625L10.6031 10.5375C10.5281 10.8125 10.2812 11 10 11C6.13438 11 3 7.86562 3 4C3 3.71875 3.1875 3.47187 3.45937 3.39687L4.83437 3.02187Z" fill="#3F444A"/>
</svg>
