<svg width="10" height="10" viewBox="0 0 10 10" fill="none" xmlns="http://www.w3.org/2000/svg">
<path d="M3.5768 1.70412C4.21033 0.568236 4.5268 0 5.00033 0C5.47386 0 5.79033 0.568236 6.42386 1.70412L6.58739 1.99824C6.76739 2.32118 6.85798 2.48236 6.99798 2.58883C7.13798 2.6953 7.31269 2.73471 7.66269 2.81412L7.98033 2.88589C9.21034 3.16412 9.82563 3.30353 9.97151 3.77412C10.118 4.24471 9.69857 4.73471 8.85975 5.7153L8.64328 5.96824C8.40504 6.24707 8.28622 6.38648 8.2321 6.55883C8.17916 6.73119 8.19681 6.91707 8.23269 7.28824L8.26563 7.62707C8.39269 8.93531 8.45563 9.58942 8.07269 9.88001C7.68974 10.1706 7.11386 9.9059 5.96268 9.37589L5.66445 9.23825C5.33739 9.08766 5.17386 9.01236 5.00033 9.01236C4.8268 9.01236 4.66327 9.08766 4.33562 9.23825L4.03798 9.37589C2.8868 9.90531 2.31091 10.1712 1.92797 9.88001C1.54503 9.58942 1.60856 8.93531 1.73503 7.62707L1.76797 7.28883C1.80385 6.91707 1.82209 6.73118 1.76797 6.55942C1.71503 6.38648 1.59562 6.24766 1.35738 5.96883L1.14032 5.71471C0.302088 4.73471 -0.117324 4.24412 0.0285581 3.77353C0.175617 3.30295 0.790324 3.16412 2.02033 2.88589L2.33797 2.81412C2.68797 2.73471 2.86268 2.6953 3.00268 2.58883C3.14327 2.48294 3.23327 2.32118 3.41327 1.99824L3.5768 1.70412Z" fill="#FF9933"/>
</svg>
