<svg width="13" height="12" viewBox="0 0 13 12" fill="none" xmlns="http://www.w3.org/2000/svg">
<path fill-rule="evenodd" clip-rule="evenodd" d="M5.38228 1.20377e-08C4.52395 7.25271e-05 3.67808 0.203696 2.91525 0.593882C2.15241 0.984069 1.49474 1.5495 0.997081 2.24301C0.499427 2.93652 0.176229 3.73799 0.0544513 4.58056C-0.0673262 5.42312 0.0158482 6.28235 0.297035 7.08656C0.578222 7.89076 1.04927 8.61663 1.67087 9.20359C2.29248 9.79055 3.04662 10.2216 3.87037 10.4607C4.69413 10.6999 5.56361 10.7402 6.40628 10.5784C7.24895 10.4165 8.04037 10.0572 8.71451 9.53031L11.0272 11.8237C11.1466 11.9381 11.3066 12.0014 11.4726 12C11.6387 11.9985 11.7975 11.9325 11.9149 11.8161C12.0323 11.6996 12.0989 11.5421 12.1004 11.3775C12.1018 11.2128 12.038 11.0542 11.9226 10.9357L9.60994 8.64234C10.2356 7.85524 10.6252 6.90935 10.734 5.91294C10.8429 4.91653 10.6667 3.90985 10.2256 3.00811C9.7845 2.10637 9.09629 1.346 8.23975 0.814015C7.38321 0.282032 6.39294 -6.72845e-05 5.38228 1.20377e-08ZM1.26607 5.33788C1.26607 4.25529 1.69974 3.21704 2.47168 2.45153C3.24362 1.68603 4.29059 1.25597 5.38228 1.25597C6.47396 1.25597 7.52094 1.68603 8.29288 2.45153C9.06482 3.21704 9.49849 4.25529 9.49849 5.33788C9.49849 6.42047 9.06482 7.45872 8.29288 8.22422C7.52094 8.98973 6.47396 9.41979 5.38228 9.41979C4.29059 9.41979 3.24362 8.98973 2.47168 8.22422C1.69974 7.45872 1.26607 6.42047 1.26607 5.33788Z" fill="white"/>
</svg>
